<?xml version="1.0" encoding="UTF-8"?><svg id="uuid-9882fc53-6259-4501-adef-febd994f94c6" xmlns="http://www.w3.org/2000/svg" viewBox="0 0 250 200"><defs><style>.uuid-f6c88296-6949-4e1d-a28f-d7a3767a82f8{fill:#1d1d1b;}</style></defs><path class="uuid-f6c88296-6949-4e1d-a28f-d7a3767a82f8" d="M105.52,160.75c-13.45-.42-27.19-1.98-40.41-4.46-19.63-3.67-57.88-13.6-63.82-35.66-7.77-28.83,33.4-42.87,54.77-47.08l-19.11,11.7c-8.31,5.86-24.97,18.79-17.17,30.34,8.51,12.59,48.09,17.57,62.92,19.48,7.54.97,15.25,1.62,22.82,1.91v-9.14c9.72,7.71,19.45,15.43,29.18,23.13l-29.18,22.6v-12.81h0Z"/><path class="uuid-f6c88296-6949-4e1d-a28f-d7a3767a82f8" d="M129.33,161.35l11.58-10.67-14.64-13.11c22.1-.07,45-2.15,66.56-7.02,9.95-2.24,27.41-6.78,33.22-15.61,8.08-12.29-7.59-24.5-16.54-30.93l-17.9-11.09c20.56,4.13,60,16.28,57.99,42.98-1.48,19.63-27.3,30.39-43.48,35.24-24.7,7.41-51.07,9.74-76.79,10.2h0Z"/><path class="uuid-f6c88296-6949-4e1d-a28f-d7a3767a82f8" d="M67.14,89.31l6.62-6.62c1.7,2.5,5.11,4.13,8.72,4.13,4.79,0,8-2.69,8-7.02s-3.21-6.95-8.59-6.95c-1.64,0-3.67.26-4.85.65v-5.7l8.79-10.29h-15.81v-8.72h29.84v5.7l-10.62,12.13c6.49.52,11.48,5.7,11.48,13.57,0,9.25-7.21,15.61-18.04,15.61-6.43,0-11.87-2.29-15.54-6.49h0Z"/><path class="uuid-f6c88296-6949-4e1d-a28f-d7a3767a82f8" d="M104.4,79.67c0-4.06,1.31-7.87,4.14-11.93l13.05-18.95h11.61l-11.15,15.47c.46,0,.85-.07,1.31-.07,8.52,0,15.41,6.49,15.41,15.34s-7.55,16.27-17.18,16.27-17.18-7.08-17.18-16.13h0ZM128.73,79.35c0-4.27-3.08-7.41-7.15-7.41s-7.15,3.15-7.15,7.41,3.02,7.48,7.15,7.48,7.15-3.21,7.15-7.48Z"/><path class="uuid-f6c88296-6949-4e1d-a28f-d7a3767a82f8" d="M142.43,71.87c0-14.23,8.46-23.81,19.68-23.81s19.81,9.58,19.81,23.88-8.46,23.88-19.68,23.88-19.81-9.71-19.81-23.94ZM171.55,71.87c0-9.64-3.61-14.69-9.45-14.69s-9.32,4.98-9.32,14.69,3.61,14.82,9.38,14.82,9.38-5.11,9.38-14.82Z"/><path class="uuid-f6c88296-6949-4e1d-a28f-d7a3767a82f8" d="M181.07,43.58c-4.72,0-8.57-3.84-8.57-8.57s3.84-8.57,8.57-8.57,8.57,3.84,8.57,8.57-3.84,8.57-8.57,8.57ZM181.07,29.65c-2.95,0-5.36,2.41-5.36,5.36s2.41,5.36,5.36,5.36,5.36-2.41,5.36-5.36-2.41-5.36-5.36-5.36Z"/></svg>