<?xml version="1.0" encoding="UTF-8"?><svg id="uuid-b2e6e751-0521-4ce9-a650-f7ab2988c6b8" xmlns="http://www.w3.org/2000/svg" viewBox="0 0 305.68 180.34"><defs><style>.uuid-dd09d6e6-6fcd-40e2-9f47-c5b841ac47f4{fill:#1d1d1b;}</style></defs><path class="uuid-dd09d6e6-6fcd-40e2-9f47-c5b841ac47f4" d="M128.96,164.64c-16.49-.51-33.33-2.43-49.54-5.47-24.06-4.5-70.95-16.67-78.24-43.72-9.53-35.34,40.94-52.56,67.14-57.72l-23.43,14.34c-10.19,7.18-30.61,23.04-21.05,37.19,10.43,15.44,58.95,21.54,77.14,23.88,9.24,1.19,18.69,1.98,27.97,2.34v-11.21c11.92,9.45,23.85,18.91,35.77,28.36l-35.77,27.71v-15.7Z"/><path class="uuid-dd09d6e6-6fcd-40e2-9f47-c5b841ac47f4" d="M158.15,165.38l14.2-13.08-17.95-16.07c27.09-.08,55.16-2.64,81.6-8.6,12.2-2.75,33.6-8.31,40.72-19.14,9.91-15.07-9.31-30.03-20.28-37.92l-21.94-13.59c25.21,5.06,73.55,19.96,71.09,52.69-1.81,24.07-33.47,37.25-53.3,43.2-30.28,9.08-62.61,11.94-94.14,12.5Z"/><path class="uuid-dd09d6e6-6fcd-40e2-9f47-c5b841ac47f4" d="M81.91,77.07l8.12-8.12c2.09,3.06,6.27,5.06,10.69,5.06,5.87,0,9.81-3.3,9.81-8.6s-3.94-8.52-10.53-8.52c-2.01,0-4.5.32-5.95.8v-6.99l10.77-12.62h-19.38v-10.69h36.58v6.99l-13.02,14.87c7.96.64,14.07,6.99,14.07,16.64,0,11.34-8.84,19.14-22.11,19.14-7.88,0-14.55-2.81-19.05-7.96Z"/><path class="uuid-dd09d6e6-6fcd-40e2-9f47-c5b841ac47f4" d="M127.58,65.25c0-4.98,1.61-9.65,5.07-14.63l16-23.23h14.23l-13.67,18.97c.56,0,1.04-.08,1.61-.08,10.45,0,18.89,7.96,18.89,18.81s-9.25,19.94-21.06,19.94-21.06-8.68-21.06-19.78ZM157.41,64.85c0-5.23-3.78-9.08-8.76-9.08s-8.76,3.86-8.76,9.08,3.7,9.17,8.76,9.17,8.76-3.94,8.76-9.17Z"/><path class="uuid-dd09d6e6-6fcd-40e2-9f47-c5b841ac47f4" d="M174.21,55.69c0-17.45,10.37-29.19,24.12-29.19s24.28,11.74,24.28,29.27-10.37,29.27-24.12,29.27-24.28-11.9-24.28-29.35ZM209.9,55.69c0-11.82-4.42-18.01-11.58-18.01s-11.42,6.11-11.42,18.01,4.42,18.17,11.5,18.17,11.5-6.27,11.5-18.17Z"/><path class="uuid-dd09d6e6-6fcd-40e2-9f47-c5b841ac47f4" d="M221.58,21c-5.79,0-10.5-4.71-10.5-10.5s4.71-10.5,10.5-10.5,10.5,4.71,10.5,10.5-4.71,10.5-10.5,10.5ZM221.58,3.93c-3.62,0-6.57,2.95-6.57,6.57s2.95,6.57,6.57,6.57,6.57-2.95,6.57-6.57-2.95-6.57-6.57-6.57Z"/></svg>