<?xml version="1.0" encoding="UTF-8"?>
<svg id="uuid-65716c29-d57f-463e-aabf-3020552687b9" xmlns="http://www.w3.org/2000/svg" version="1.1" viewBox="0 0 250 200">
  <!-- Generator: Adobe Illustrator 29.3.0, SVG Export Plug-In . SVG Version: 2.1.0 Build 146)  -->
  <defs>
    <style>
      .st0 {
        fill: #d80000;
      }

      .st1 {
        fill: #fff;
      }

      .st2 {
        fill: #005fe8;
      }
    </style>
  </defs>
  <rect class="st1" x="53.9" y="55" width="142.2" height="128"/>
  <rect class="st2" x="73" y="8.6" width="19.2" height="25.2"/>
  <rect class="st2" x="158.1" y="8.6" width="19.2" height="25.2"/>
  <path class="st2" d="M198.2,26.5h-15.1v8.4c0,2.6-2.1,4.7-4.7,4.7h-21.5c-2.6,0-4.7-2.1-4.7-4.7v-8.4h-54.1v8.4c0,2.6-2.1,4.7-4.7,4.7h-21.5c-2.6,0-4.7-2.1-4.7-4.7v-8.4h-15.5c-5.1,0-9.2,4.1-9.2,9.2v146.5c0,5.1,4.1,9.2,9.2,9.2h146.5c5.1,0,9.2-4.1,9.2-9.2V35.7c0-5.1-4.1-9.2-9.2-9.2ZM196.1,173.8H53.9V62.8h142.2v111Z"/>
  <rect class="st0" x="71.4" y="80.4" width="17.1" height="17.1"/>
  <rect class="st0" x="101.2" y="80.4" width="17.1" height="17.1"/>
  <rect class="st0" x="132.7" y="80.4" width="17.1" height="17.1"/>
  <rect class="st0" x="161.8" y="80.1" width="17.1" height="17.1"/>
  <rect class="st0" x="71.2" y="111.3" width="17.1" height="17.1"/>
  <rect class="st0" x="101.1" y="111.3" width="17.1" height="17.1"/>
  <rect class="st0" x="132.5" y="111.3" width="17.1" height="17.1"/>
  <rect class="st0" x="161.7" y="111" width="17.1" height="17.1"/>
  <rect class="st0" x="71.3" y="143.1" width="17.1" height="17.1"/>
  <rect class="st0" x="101.2" y="143.1" width="17.1" height="17.1"/>
  <rect class="st0" x="132.7" y="143.1" width="17.1" height="17.1"/>
  <rect class="st0" x="161.8" y="142.8" width="17.1" height="17.1"/>
</svg>