<?xml version="1.0" encoding="UTF-8"?><svg id="uuid-6da7471a-b148-4392-a318-4ce478b3f2f7" xmlns="http://www.w3.org/2000/svg" viewBox="0 0 250 200"><defs><style>.uuid-679d713a-4700-418e-bb11-6f1f85793547{fill:#fff;}</style></defs><rect class="uuid-679d713a-4700-418e-bb11-6f1f85793547" x="73" y="8.6" width="19.2" height="25.2"/><rect class="uuid-679d713a-4700-418e-bb11-6f1f85793547" x="158.1" y="8.6" width="19.2" height="25.2"/><path class="uuid-679d713a-4700-418e-bb11-6f1f85793547" d="M198.2,26.5h-15.1v8.4c0,2.6-2.1,4.7-4.7,4.7h-21.5c-2.6,0-4.7-2.1-4.7-4.7v-8.4h-54.1v8.4c0,2.6-2.1,4.7-4.7,4.7h-21.5c-2.6,0-4.7-2.1-4.7-4.7v-8.4h-15.5c-5.1,0-9.2,4.1-9.2,9.2v146.5c0,5.1,4.1,9.2,9.2,9.2h146.5c5.1,0,9.2-4.1,9.2-9.2V35.7c0-5.1-4.1-9.2-9.2-9.2h0ZM196.1,173.8H53.9V62.8h142.2v111Z"/><rect class="uuid-679d713a-4700-418e-bb11-6f1f85793547" x="71.4" y="80.4" width="17.1" height="17.1"/><rect class="uuid-679d713a-4700-418e-bb11-6f1f85793547" x="101.2" y="80.4" width="17.1" height="17.1"/><rect class="uuid-679d713a-4700-418e-bb11-6f1f85793547" x="132.7" y="80.4" width="17.1" height="17.1"/><rect class="uuid-679d713a-4700-418e-bb11-6f1f85793547" x="161.8" y="80.1" width="17.1" height="17.1"/><rect class="uuid-679d713a-4700-418e-bb11-6f1f85793547" x="71.2" y="111.3" width="17.1" height="17.1"/><rect class="uuid-679d713a-4700-418e-bb11-6f1f85793547" x="101.1" y="111.3" width="17.1" height="17.1"/><rect class="uuid-679d713a-4700-418e-bb11-6f1f85793547" x="132.5" y="111.3" width="17.1" height="17.1"/><rect class="uuid-679d713a-4700-418e-bb11-6f1f85793547" x="161.7" y="111" width="17.1" height="17.1"/><rect class="uuid-679d713a-4700-418e-bb11-6f1f85793547" x="71.3" y="143.1" width="17.1" height="17.1"/><rect class="uuid-679d713a-4700-418e-bb11-6f1f85793547" x="101.2" y="143.1" width="17.1" height="17.1"/><rect class="uuid-679d713a-4700-418e-bb11-6f1f85793547" x="132.7" y="143.1" width="17.1" height="17.1"/><rect class="uuid-679d713a-4700-418e-bb11-6f1f85793547" x="161.8" y="142.8" width="17.1" height="17.1"/></svg>