<?xml version="1.0" encoding="UTF-8"?><svg id="uuid-dc115c77-54da-474c-8e19-24e70ea87315" xmlns="http://www.w3.org/2000/svg" viewBox="0 0 830.12 920.18"><defs><style>.uuid-003deb75-6feb-46af-a7b7-dfa74bbbbff3{fill:#1d1d1b;}</style></defs><rect class="uuid-003deb75-6feb-46af-a7b7-dfa74bbbbff3" x="152.96" width="96.89" height="127.08"/><rect class="uuid-003deb75-6feb-46af-a7b7-dfa74bbbbff3" x="581.63" width="96.89" height="127.08"/><path class="uuid-003deb75-6feb-46af-a7b7-dfa74bbbbff3" d="M783.87,90.06h-76.02v42.47c0,12.96-10.6,23.56-23.56,23.56h-108.44c-12.96,0-23.56-10.6-23.56-23.56v-42.47h-272.22v42.47c0,12.96-10.6,23.56-23.56,23.56h-108.44c-12.96,0-23.56-10.6-23.56-23.56v-42.47H46.26C20.82,90.06,0,110.87,0,136.31v737.61c0,25.44,20.82,46.26,46.26,46.26h737.61c25.44,0,46.26-20.82,46.26-46.26V136.31c0-25.44-20.82-46.26-46.26-46.26ZM773.02,831.64H56.96V272.53h716.06v559.11Z"/><rect class="uuid-003deb75-6feb-46af-a7b7-dfa74bbbbff3" x="144.96" y="361.57" width="86.11" height="86.11"/><rect class="uuid-003deb75-6feb-46af-a7b7-dfa74bbbbff3" x="295.26" y="361.57" width="86.11" height="86.11"/><rect class="uuid-003deb75-6feb-46af-a7b7-dfa74bbbbff3" x="453.84" y="361.57" width="86.11" height="86.11"/><rect class="uuid-003deb75-6feb-46af-a7b7-dfa74bbbbff3" x="600.51" y="360.05" width="86.11" height="86.11"/><rect class="uuid-003deb75-6feb-46af-a7b7-dfa74bbbbff3" x="144.16" y="517.03" width="86.11" height="86.11"/><rect class="uuid-003deb75-6feb-46af-a7b7-dfa74bbbbff3" x="294.45" y="517.03" width="86.11" height="86.11"/><rect class="uuid-003deb75-6feb-46af-a7b7-dfa74bbbbff3" x="453.04" y="517.03" width="86.11" height="86.11"/><rect class="uuid-003deb75-6feb-46af-a7b7-dfa74bbbbff3" x="599.71" y="515.51" width="86.11" height="86.11"/><rect class="uuid-003deb75-6feb-46af-a7b7-dfa74bbbbff3" x="144.74" y="677.27" width="86.11" height="86.11"/><rect class="uuid-003deb75-6feb-46af-a7b7-dfa74bbbbff3" x="295.03" y="677.27" width="86.11" height="86.11"/><rect class="uuid-003deb75-6feb-46af-a7b7-dfa74bbbbff3" x="453.62" y="677.27" width="86.11" height="86.11"/><rect class="uuid-003deb75-6feb-46af-a7b7-dfa74bbbbff3" x="600.29" y="675.75" width="86.11" height="86.11"/></svg>