<?xml version="1.0" encoding="UTF-8"?><svg id="uuid-359af1d1-c35a-42e0-94d3-4b023bc76e90" xmlns="http://www.w3.org/2000/svg" viewBox="0 0 250 200"><defs><style>.uuid-41fb3bf0-06eb-45cf-a327-a18ac18a77a5{fill:#1d1d1b;}</style></defs><path class="uuid-41fb3bf0-06eb-45cf-a327-a18ac18a77a5" d="M125.08,158.24c10.89-17.66,21.14-35.86,30.59-54.31-10.69-.61-21.4-.92-32.1-.92h-.13c-9.8,0-19.61.27-29.41.78,1.57,3.04,3.16,6.07,4.77,9.09,8.19,15.34,17.01,30.55,26.28,45.36Z"/><path class="uuid-41fb3bf0-06eb-45cf-a327-a18ac18a77a5" d="M210.19,116.57c.69-2.18,1.35-4.37,1.98-6.56-16.91-2.68-33.95-4.59-51.03-5.73,11.2,17.8,21.36,36.29,30.39,55.33,7.62-13.7,13.89-28.12,18.65-43.03Z"/><path class="uuid-41fb3bf0-06eb-45cf-a327-a18ac18a77a5" d="M58.68,159.4c9.62-18.94,20.2-37.48,31.61-55.39-16.97,1-33.9,2.77-50.72,5.29,1.24,4.65,2.6,9.26,4.09,13.83,4.06,12.42,9.11,24.58,15.02,36.27Z"/><path class="uuid-41fb3bf0-06eb-45cf-a327-a18ac18a77a5" d="M128.46,58.03c14.86.08,29.72.74,44.54,1.98-10.76-9.25-21.52-16.4-31.3-21.86-4.97,5.95-9.85,12-14.62,18.14.46.58.92,1.16,1.38,1.74Z"/><path class="uuid-41fb3bf0-06eb-45cf-a327-a18ac18a77a5" d="M148.11,38.86c9.08,5.44,18.81,12.29,28.49,20.84,1.42-3.27,2.82-6.54,4.19-9.82-10.18-5.1-21.15-8.86-32.69-11.02Z"/><path class="uuid-41fb3bf0-06eb-45cf-a327-a18ac18a77a5" d="M74.68,63.39c5.59,12.59,11.52,25.05,17.77,37.29,3.72-5.77,7.51-11.48,11.4-17.11,5.35-7.73,10.9-15.38,16.62-22.92-15.07.13-30.15.87-45.17,2.2-.21.18-.41.35-.62.53Z"/><path class="uuid-41fb3bf0-06eb-45cf-a327-a18ac18a77a5" d="M49.12,86.45c7.01-8.84,14.38-16.52,21.8-23.2-8.94.87-17.87,1.96-26.76,3.24-3.87,3.3-7.53,6.83-10.97,10.57,1.13,8.48,2.67,16.91,4.64,25.23,3.37-5.28,7.11-10.58,11.3-15.86Z"/><path class="uuid-41fb3bf0-06eb-45cf-a327-a18ac18a77a5" d="M212.59,107.43c-4.21-7.18-9.12-14.46-14.85-21.68-6.51-8.2-13.33-15.4-20.21-21.71-5.27,11.94-10.82,23.77-16.64,35.37-.36.72-.74,1.44-1.1,2.16,17.68,1.13,35.31,3.08,52.8,5.86Z"/><path class="uuid-41fb3bf0-06eb-45cf-a327-a18ac18a77a5" d="M78.75,59.93c14.55-1.2,29.14-1.83,43.72-1.9.43-.57.86-1.13,1.3-1.7-4.66-5.79-9.43-11.5-14.32-17.1-9.51,5.15-20.06,11.91-30.7,20.7Z"/><path class="uuid-41fb3bf0-06eb-45cf-a327-a18ac18a77a5" d="M72.63,65.21c-7.31,6.58-14.57,14.15-21.47,22.86-4.68,5.9-8.81,11.84-12.47,17.74.08.32.16.63.24.95,16.9-2.54,33.92-4.32,50.97-5.34-6.06-11.89-11.83-23.99-17.27-36.21Z"/><path class="uuid-41fb3bf0-06eb-45cf-a327-a18ac18a77a5" d="M95.27,101.12c9.39-.47,18.78-.72,28.17-.72h.13c10.88,0,21.77.32,32.64.95-4.93-7.67-10.06-15.21-15.37-22.6-4.4-6.12-8.97-12.16-13.65-18.12-.61,0-1.21-.01-1.82-.01h-.13c-.49,0-.98,0-1.47.01-6.12,8.02-12.06,16.17-17.77,24.42-3.66,5.29-7.22,10.66-10.73,16.07Z"/><path class="uuid-41fb3bf0-06eb-45cf-a327-a18ac18a77a5" d="M142.95,77.23c5.2,7.23,10.22,14.61,15.05,22.11.18-.36.37-.73.56-1.09,5.83-11.61,11.39-23.46,16.66-35.41-14.87-1.32-29.79-2.05-44.71-2.18,4.26,5.46,8.42,10.98,12.44,16.58Z"/><path class="uuid-41fb3bf0-06eb-45cf-a327-a18ac18a77a5" d="M199.78,84.13c5.32,6.7,9.94,13.46,13.96,20.14,2.14-8.22,3.83-16.56,5.07-24.97-4.05-4.63-8.44-8.95-13.13-12.94-8.34-1.2-16.71-2.21-25.09-3.04,6.53,6.11,13,13.01,19.19,20.81Z"/><path class="uuid-41fb3bf0-06eb-45cf-a327-a18ac18a77a5" d="M214.61,110.96c-.62,2.14-1.26,4.28-1.94,6.41-5,15.67-11.65,30.8-19.78,45.14.12.26.25.53.37.79h41.12c-3.13-14.45-8.95-32.94-19.78-52.33Z"/><path class="uuid-41fb3bf0-06eb-45cf-a327-a18ac18a77a5" d="M179.06,60.57c7.6.72,15.19,1.6,22.76,2.63-5.84-4.57-12.1-8.63-18.7-12.12-1.33,3.17-2.68,6.34-4.05,9.5Z"/><path class="uuid-41fb3bf0-06eb-45cf-a327-a18ac18a77a5" d="M221.06,81.93c-1.36,8.59-3.19,17.1-5.47,25.48.11.19.21.37.32.56,7.95,1.31,15.86,2.78,23.74,4.43-4.73-11.07-11.02-21.32-18.6-30.47Z"/><path class="uuid-41fb3bf0-06eb-45cf-a327-a18ac18a77a5" d="M111.8,37.98c4.64,5.32,9.17,10.74,13.6,16.23,4.4-5.66,8.9-11.24,13.47-16.73-4.56-.51-9.19-.77-13.88-.77-3.99,0-7.93.2-11.82.56-.46.23-.91.47-1.38.71Z"/><path class="uuid-41fb3bf0-06eb-45cf-a327-a18ac18a77a5" d="M217.53,110.87c10.68,19.47,16.43,37.98,19.52,52.42h12.56c.03-.65.03-1.3.03-1.95,0-16.26-3.12-31.79-8.78-46.03-7.74-1.64-15.51-3.12-23.32-4.43Z"/><path class="uuid-41fb3bf0-06eb-45cf-a327-a18ac18a77a5" d="M73.37,60.41c.29-.03.58-.05.86-.08,10.94-9.4,21.87-16.65,31.79-22.19-13.17,2.01-25.65,6.09-37.12,11.88,1.46,3.47,2.95,6.93,4.47,10.39Z"/><path class="uuid-41fb3bf0-06eb-45cf-a327-a18ac18a77a5" d="M32.97,110.32c-7.88,1.28-15.74,2.72-23.56,4.33C3.58,129.07.37,144.83.37,161.34c0,.65,0,1.3.03,1.95h11.97c3.36-14.8,9.48-33.48,20.61-52.97Z"/><path class="uuid-41fb3bf0-06eb-45cf-a327-a18ac18a77a5" d="M56.75,163.29c.16-.33.33-.66.49-.99-6.36-12.34-11.75-25.21-16.05-38.37-1.54-4.7-2.93-9.46-4.2-14.25-.23.04-.47.08-.7.11-11.5,19.62-17.81,38.52-21.25,53.5h41.71Z"/><path class="uuid-41fb3bf0-06eb-45cf-a327-a18ac18a77a5" d="M35.9,105.38c-2.09-8.5-3.76-17.1-4.99-25.77-8.3,9.55-15.17,20.38-20.28,32.14,7.98-1.62,15.99-3.06,24.04-4.33.4-.68.81-1.36,1.23-2.04Z"/><path class="uuid-41fb3bf0-06eb-45cf-a327-a18ac18a77a5" d="M70.63,60.66c-1.37-3.14-2.72-6.28-4.05-9.43-6.55,3.48-12.76,7.53-18.55,12.08,7.51-1.03,15.05-1.92,22.6-2.65Z"/><path class="uuid-41fb3bf0-06eb-45cf-a327-a18ac18a77a5" d="M123.56,160.71c-9.55-15.2-18.63-30.83-27.05-46.6-1.46-2.73-2.89-5.48-4.32-8.23-11.6,18.24-22.3,37.12-32.03,56.42.17.33.35.67.53,1h61.25c.54-.86,1.09-1.72,1.63-2.58Z"/><path class="uuid-41fb3bf0-06eb-45cf-a327-a18ac18a77a5" d="M189.97,162.39c-9.37-19.92-19.98-39.25-31.71-57.81-9.75,19.07-20.34,37.88-31.63,56.12.55.86,1.09,1.73,1.64,2.59h61.19c.17-.3.34-.6.51-.9Z"/><path class="uuid-41fb3bf0-06eb-45cf-a327-a18ac18a77a5" d="M125.09,163.16s-.06.09-.09.14h.17s-.06-.09-.08-.14Z"/></svg>