<?xml version="1.0" encoding="UTF-8"?><svg id="uuid-7dd6719d-774b-454f-b238-638f2acf4113" xmlns="http://www.w3.org/2000/svg" viewBox="0 0 191.41 97.2"><defs><style>.uuid-421d9bf8-0017-4b50-8de9-ffb1ed2deea2{fill:#1d1d1b;}</style></defs><path class="uuid-421d9bf8-0017-4b50-8de9-ffb1ed2deea2" d="M95.77,93.32c8.36-13.56,16.23-27.54,23.49-41.7-8.21-.47-16.43-.7-24.65-.7h-.1c-7.53,0-15.06.21-22.58.6,1.21,2.34,2.43,4.66,3.66,6.98,6.29,11.78,13.06,23.46,20.18,34.83Z"/><path class="uuid-421d9bf8-0017-4b50-8de9-ffb1ed2deea2" d="M161.12,61.32c.53-1.67,1.04-3.35,1.52-5.04-12.99-2.06-26.07-3.53-39.18-4.4,8.6,13.66,16.4,27.87,23.34,42.49,5.85-10.52,10.67-21.59,14.32-33.04Z"/><path class="uuid-421d9bf8-0017-4b50-8de9-ffb1ed2deea2" d="M44.78,94.21c7.38-14.55,15.51-28.78,24.27-42.54-13.03.77-26.03,2.12-38.95,4.06.95,3.57,1.99,7.11,3.14,10.62,3.12,9.54,6.99,18.87,11.53,27.85Z"/><path class="uuid-421d9bf8-0017-4b50-8de9-ffb1ed2deea2" d="M98.36,16.37c11.41.06,22.82.56,34.2,1.52-8.26-7.11-16.53-12.59-24.03-16.79-3.82,4.57-7.56,9.22-11.22,13.93.35.44.71.89,1.06,1.33Z"/><path class="uuid-421d9bf8-0017-4b50-8de9-ffb1ed2deea2" d="M113.45,1.65c6.97,4.18,14.44,9.44,21.88,16,1.09-2.51,2.16-5.02,3.22-7.54-7.82-3.92-16.24-6.8-25.1-8.46Z"/><path class="uuid-421d9bf8-0017-4b50-8de9-ffb1ed2deea2" d="M57.06,20.49c4.29,9.67,8.85,19.23,13.65,28.63,2.86-4.43,5.77-8.82,8.76-13.14,4.11-5.94,8.37-11.81,12.76-17.6-11.57.1-23.15.67-34.69,1.69-.16.14-.32.27-.48.41Z"/><path class="uuid-421d9bf8-0017-4b50-8de9-ffb1ed2deea2" d="M37.44,38.19c5.38-6.79,11.04-12.69,16.74-17.81-6.87.66-13.72,1.5-20.55,2.49-2.97,2.53-5.78,5.25-8.42,8.12.87,6.51,2.05,12.98,3.56,19.38,2.59-4.05,5.46-8.13,8.67-12.18Z"/><path class="uuid-421d9bf8-0017-4b50-8de9-ffb1ed2deea2" d="M162.96,54.31c-3.24-5.52-7-11.11-11.4-16.65-5-6.3-10.24-11.82-15.52-16.67-4.04,9.17-8.31,18.26-12.78,27.16-.28.55-.57,1.11-.85,1.66,13.57.87,27.11,2.37,40.55,4.5Z"/><path class="uuid-421d9bf8-0017-4b50-8de9-ffb1ed2deea2" d="M60.19,17.83c11.17-.92,22.37-1.4,33.57-1.46.33-.43.66-.87,1-1.3-3.58-4.45-7.24-8.83-11-13.13-7.3,3.95-15.4,9.15-23.57,15.89Z"/><path class="uuid-421d9bf8-0017-4b50-8de9-ffb1ed2deea2" d="M55.49,21.88c-5.61,5.05-11.19,10.87-16.49,17.55-3.59,4.53-6.77,9.09-9.57,13.62.06.24.12.48.18.73,12.98-1.95,26.04-3.32,39.14-4.1-4.65-9.13-9.09-18.42-13.26-27.8Z"/><path class="uuid-421d9bf8-0017-4b50-8de9-ffb1ed2deea2" d="M72.87,49.46c7.21-.36,14.42-.55,21.63-.55h.1c8.36,0,16.72.25,25.06.73-3.79-5.89-7.72-11.68-11.8-17.35-3.38-4.7-6.89-9.34-10.49-13.92-.47,0-.93,0-1.4,0h-.1c-.38,0-.75,0-1.13,0-4.7,6.16-9.26,12.42-13.65,18.75-2.81,4.06-5.54,8.19-8.24,12.34Z"/><path class="uuid-421d9bf8-0017-4b50-8de9-ffb1ed2deea2" d="M109.49,31.12c3.99,5.55,7.84,11.22,11.56,16.98.14-.28.29-.56.43-.84,4.47-8.92,8.74-18.01,12.79-27.19-11.42-1.01-22.88-1.57-34.33-1.68,3.27,4.19,6.47,8.43,9.56,12.73Z"/><path class="uuid-421d9bf8-0017-4b50-8de9-ffb1ed2deea2" d="M153.13,36.41c4.08,5.15,7.63,10.33,10.72,15.46,1.64-6.31,2.94-12.72,3.9-19.17-3.11-3.55-6.48-6.88-10.08-9.94-6.4-.92-12.83-1.7-19.27-2.33,5.02,4.69,9.98,9.99,14.73,15.98Z"/><path class="uuid-421d9bf8-0017-4b50-8de9-ffb1ed2deea2" d="M164.51,57.01c-.48,1.65-.97,3.29-1.49,4.92-3.84,12.03-8.95,23.65-15.19,34.66.09.2.19.41.28.61h31.58c-2.4-11.1-6.88-25.3-15.19-40.19Z"/><path class="uuid-421d9bf8-0017-4b50-8de9-ffb1ed2deea2" d="M137.22,18.32c5.84.55,11.66,1.23,17.47,2.02-4.48-3.51-9.29-6.63-14.36-9.31-1.02,2.44-2.06,4.87-3.11,7.29Z"/><path class="uuid-421d9bf8-0017-4b50-8de9-ffb1ed2deea2" d="M169.46,34.72c-1.04,6.6-2.45,13.13-4.2,19.57.08.14.16.29.24.43,6.1,1,12.18,2.14,18.23,3.4-3.63-8.5-8.46-16.37-14.28-23.4Z"/><path class="uuid-421d9bf8-0017-4b50-8de9-ffb1ed2deea2" d="M85.57.98c3.56,4.08,7.04,8.24,10.45,12.47,3.38-4.34,6.83-8.63,10.34-12.85-3.5-.39-7.05-.59-10.66-.59-3.06,0-6.09.15-9.07.43-.35.18-.7.36-1.06.55Z"/><path class="uuid-421d9bf8-0017-4b50-8de9-ffb1ed2deea2" d="M166.76,56.95c8.2,14.95,12.62,29.16,14.99,40.25h9.64c.02-.5.02-1,.02-1.5,0-12.49-2.39-24.41-6.75-35.35-5.94-1.26-11.91-2.39-17.9-3.4Z"/><path class="uuid-421d9bf8-0017-4b50-8de9-ffb1ed2deea2" d="M56.06,18.2c.22-.02.44-.04.66-.06,8.4-7.22,16.79-12.79,24.41-17.04-10.11,1.54-19.7,4.67-28.51,9.12,1.12,2.67,2.27,5.32,3.43,7.98Z"/><path class="uuid-421d9bf8-0017-4b50-8de9-ffb1ed2deea2" d="M25.04,56.53c-6.05.98-12.09,2.09-18.09,3.32C2.47,70.93,0,83.02,0,95.7c0,.5,0,1,.02,1.5h9.19c2.58-11.37,7.28-25.71,15.83-40.67Z"/><path class="uuid-421d9bf8-0017-4b50-8de9-ffb1ed2deea2" d="M43.3,97.2c.13-.25.25-.51.38-.76-4.88-9.48-9.02-19.36-12.33-29.47-1.18-3.61-2.25-7.26-3.22-10.94-.18.03-.36.06-.54.09-8.83,15.07-13.67,29.58-16.32,41.08h32.03Z"/><path class="uuid-421d9bf8-0017-4b50-8de9-ffb1ed2deea2" d="M27.29,52.73c-1.61-6.52-2.88-13.13-3.83-19.79-6.38,7.33-11.65,15.65-15.57,24.68,6.13-1.24,12.28-2.35,18.46-3.33.31-.52.63-1.04.94-1.56Z"/><path class="uuid-421d9bf8-0017-4b50-8de9-ffb1ed2deea2" d="M53.96,18.39c-1.05-2.41-2.09-4.82-3.11-7.24-5.03,2.67-9.8,5.78-14.24,9.27,5.77-.79,11.56-1.47,17.35-2.03Z"/><path class="uuid-421d9bf8-0017-4b50-8de9-ffb1ed2deea2" d="M94.6,95.22c-7.34-11.67-14.31-23.67-20.77-35.79-1.12-2.1-2.22-4.21-3.32-6.32-8.9,14-17.13,28.5-24.59,43.32.13.26.27.51.41.77h47.03c.42-.66.84-1.32,1.25-1.98Z"/><path class="uuid-421d9bf8-0017-4b50-8de9-ffb1ed2deea2" d="M145.59,96.51c-7.19-15.29-15.34-30.14-24.35-44.39-7.48,14.64-15.62,29.09-24.29,43.09.42.66.84,1.33,1.26,1.99h46.99c.13-.23.26-.46.39-.69Z"/><path class="uuid-421d9bf8-0017-4b50-8de9-ffb1ed2deea2" d="M95.78,97.1s-.04.07-.07.1h.13s-.04-.07-.07-.1Z"/></svg>