<?xml version="1.0" encoding="UTF-8"?><svg id="uuid-821dbb0d-9829-47eb-9ae8-4339ed2de8a1" xmlns="http://www.w3.org/2000/svg" viewBox="0 0 342.73 240.85"><polygon points="293.29 89.88 154.05 85.95 261.44 179.91 105.74 193.53 77.85 240.85 337.76 200.24 201.03 100.23 303.78 100.23 293.29 89.88"/><path d="M79.32,51.26C29,36.83-15.18,87.33,5,135.24c19.14,35.2,38.29,70.41,57.43,105.61,1.2-2.66,2.56-5.35,3.96-7.91,18.58-34.08,37.71-68.04,54.76-102.86,10.57-33.31-8.28-69.2-41.82-78.82ZM62.08,140.62c-16.75,0-30.32-13.58-30.32-30.33s13.58-30.33,30.32-30.33,30.32,13.58,30.32,30.33-13.58,30.33-30.32,30.33Z"/><path d="M319.37,1.31c-26.25-7.53-49.31,18.82-38.78,43.82,9.99,18.37,19.98,36.74,29.97,55.1.63-1.39,1.34-2.79,2.07-4.13,9.69-17.78,19.67-35.5,28.57-53.67,5.52-17.38-4.32-36.11-21.82-41.13ZM310.38,47.93c-8.74,0-15.82-7.09-15.82-15.82s7.08-15.82,15.82-15.82,15.82,7.08,15.82,15.82-7.08,15.82-15.82,15.82Z"/></svg>