<?xml version="1.0" encoding="UTF-8"?><svg id="uuid-65716c29-d57f-463e-aabf-3020552687b9" xmlns="http://www.w3.org/2000/svg" viewBox="0 0 250 200"><polygon points="213.94 77.72 112.37 74.85 190.71 143.39 77.13 153.33 56.79 187.85 246.38 158.22 146.64 85.27 221.59 85.27 213.94 77.72"/><path d="M57.86,49.54C21.15,39.02-11.07,75.86,3.65,110.81c13.96,25.68,27.93,51.36,41.89,77.04.87-1.94,1.87-3.9,2.89-5.77,13.55-24.86,27.51-49.63,39.94-75.03,7.71-24.3-6.04-50.48-30.51-57.5ZM45.29,114.73c-12.22,0-22.12-9.91-22.12-22.12s9.9-22.12,22.12-22.12,22.12,9.9,22.12,22.12-9.9,22.12-22.12,22.12Z"/><path d="M232.96,13.11c-19.15-5.49-35.97,13.73-28.29,31.96,7.29,13.4,14.57,26.8,21.86,40.19.46-1.01.98-2.03,1.51-3.01,7.07-12.97,14.35-25.89,20.84-39.15,4.02-12.68-3.15-26.34-15.92-30ZM226.4,47.12c-6.37,0-11.54-5.17-11.54-11.54s5.17-11.54,11.54-11.54,11.54,5.17,11.54,11.54-5.17,11.54-11.54,11.54Z"/></svg>