<?xml version="1.0" encoding="UTF-8"?><svg id="uuid-bea2e795-17cb-49a6-a1de-5d9baf394513" xmlns="http://www.w3.org/2000/svg" viewBox="0 0 250 200"><defs><style>.uuid-07988248-c1de-4626-a6eb-d66308b03579{fill:#fff;}</style></defs><path class="uuid-07988248-c1de-4626-a6eb-d66308b03579" d="M220.98,33.3c.45.59-2.71,3.02-3.33,3.55-28.8,24.44-58.82,47.51-87.56,72.04-3.23,1.95-7.69,1.92-10.65-.53L29.04,33.55c3.96-2.22,8.47-3.42,13-3.85h166.45c4.37.45,8.48,1.92,12.49,3.59Z"/><path class="uuid-07988248-c1de-4626-a6eb-d66308b03579" d="M220.98,166.7c-4,1.68-8.12,3.14-12.49,3.59H42.04c-4.53-.42-9.04-1.63-13-3.84l73.53-61.13c.78-.42,1.39.16,2,.57,5.42,3.62,8.74,9.14,15.75,10.77,12.38,2.87,17.62-5.06,26.48-11.49l74.18,61.53Z"/><path class="uuid-07988248-c1de-4626-a6eb-d66308b03579" d="M226.92,38.93c3.49,2.28,5.04,7.87,5.32,11.91,2.23,32.01-1.73,66.56,0,98.83-.54,4.2-1.96,8.33-4.89,11.44l-74.23-60.9,73.81-61.28Z"/><path class="uuid-07988248-c1de-4626-a6eb-d66308b03579" d="M22.69,38.89l74.23,61.31-74.24,60.9c-2.79-3.24-4.42-7.17-4.88-11.44,1.8-32.21-2.34-66.91,0-98.83.33-4.46,1.99-8.59,4.89-11.95Z"/></svg>