<?xml version="1.0" encoding="UTF-8"?><svg id="uuid-2b0ff5d2-836b-4045-adb2-ce0e236ffe76" xmlns="http://www.w3.org/2000/svg" viewBox="0 0 215.88 140.59"><path d="M203.92,3.6c.45.59-2.71,3.02-3.33,3.55-28.8,24.44-58.82,47.51-87.56,72.04-3.23,1.95-7.69,1.92-10.65-.53L11.98,3.85C15.94,1.63,20.45.43,24.98,0h166.45c4.37.45,8.48,1.92,12.49,3.59h0Z"/><path d="M203.92,137c-4,1.68-8.12,3.14-12.49,3.59H24.98c-4.53-.42-9.04-1.63-13-3.84l73.53-61.13c.78-.42,1.39.16,2,.57,5.42,3.62,8.74,9.14,15.75,10.77,12.38,2.87,17.62-5.06,26.48-11.49l74.18,61.53h0Z"/><path d="M209.86,9.23c3.49,2.28,5.04,7.87,5.32,11.91,2.23,32.01-1.73,66.56,0,98.83-.54,4.2-1.96,8.33-4.89,11.44l-74.23-60.9L209.87,9.23h0Z"/><path d="M5.63,9.19l74.23,61.31L5.62,131.4c-2.79-3.24-4.42-7.17-4.88-11.44C2.54,87.75-1.6,53.05.74,21.13c.33-4.46,1.99-8.59,4.89-11.95h0Z"/></svg>