<?xml version="1.0" encoding="UTF-8"?><svg id="uuid-2483d601-5002-4c1a-a773-f80423300f88" xmlns="http://www.w3.org/2000/svg" viewBox="0 0 157.32 171.93"><path d="M34.6.35C10.08,2.86-1.62,25.21.19,48.06c3.1,39.09,61.34,107.84,98.07,120.6,10.36,3.6,24.45,4.76,34.79.77,13.98-5.39,25.88-22.47,24.09-37.67-.52-4.43-9.13-8.26-12.9-10.12-5.73-2.81-13.05-5.95-19.03-8.17-8.75-3.26-13.19-6.28-19.86,2.1-5.02,6.29-5.48,14.13-15.87,8-15.4-9.08-31.17-26.29-39.68-41.93-2.32-4.27-8.49-16.37-7-20.79,1.36-4.04,17.09-6.21,18.49-12.37.68-3-.59-8.06-1.1-11.24-1.23-7.59-3.19-17.14-5.33-24.49C51.38.83,46.86-.91,34.61.35h-.01Z"/><path d="M34.6.35c12.24-1.25,16.77.48,20.25,12.4,2.14,7.35,4.1,16.9,5.33,24.49.51,3.18,1.78,8.23,1.1,11.24-1.4,6.16-17.13,8.33-18.49,12.37-1.49,4.42,4.68,16.52,7,20.79,8.52,15.64,24.28,32.85,39.68,41.93,10.4,6.13,10.86-1.71,15.87-8,6.67-8.37,11.11-5.36,19.86-2.1,5.98,2.23,13.3,5.36,19.03,8.17,3.77,1.85,12.38,5.68,12.9,10.12,1.79,15.2-10.11,32.28-24.09,37.67-10.34,3.99-24.43,2.83-34.79-.77C61.51,155.9,3.27,87.14.18,48.06-1.63,25.22,10.08,2.86,34.59.35h.01Z"/></svg>