<?xml version="1.0" encoding="UTF-8"?><svg id="uuid-ca34e301-d476-419f-af99-61166775ce75" xmlns="http://www.w3.org/2000/svg" viewBox="0 0 250 200"><path d="M214,69.64l-125.56,125.86-15.31-14.97c4.37-4.04,3.92-11.17,1.95-16.34-4.23-11.1-19.91-21.13-30.8-12.67l-14.58-14.6L135.04,30.95c.31-.27.5-.16.81,0,1.09.56,4.31,4.92,5.12,5.05.8-.43,3.6-2.88,3.29-3.59-.49-1.13-4.31-3.68-4.95-4.93-.16-.32-.27-.51,0-.81l22.22-22.16,15.31,14.97c-12.27,8.44-4.11,25.05,6.19,31.19,6.99,4.17,16.77,5.35,21.69-2.45l.6-.18,14.99,14.98-6.31,6.62ZM153.29,41.42l-3.52,3.53,8.64,8.65,3.52-3.53-8.64-8.65ZM170.71,58.87l-3.52,3.53,8.85,8.87,3.52-3.53-8.85-8.87ZM188.13,76.36l-3.51,3.52,8.85,8.86,3.51-3.52-8.85-8.86Z"/></svg>