<?xml version="1.0" encoding="UTF-8"?><svg id="uuid-eee7b7a6-517b-4e77-937e-d9a7fef2dc5c" xmlns="http://www.w3.org/2000/svg" viewBox="0 0 590.21 318.77"><path d="M273.23,209.25v-49.9h12.79c10.98,0,16.61,4.59,16.61,14.87s-5.77,15.22-16.61,15.22h-4.52v19.81h-8.27ZM286.36,182.14c4.03,0,7.78-1.81,7.78-7.92,0-5.35-2.78-7.37-7.65-7.37h-5v15.29h4.87Z"/><rect x="307.08" y="159.35" width="7.37" height="49.9"/><path d="M337.25,209.25l-.42-3.82c-2.85,2.92-6.04,4.45-9.8,4.45-5.07,0-8.13-3.47-8.13-9.52,0-4.1,1.46-7.23,4.59-9.52,2.78-2.16,7.37-3.68,13-5.35.42-4.73-.63-7.02-4.31-7.02-3.06,0-4.79,1.81-5.84,5l-5.98-1.46c1.6-5.84,5.14-9.59,12.23-9.59,7.85,0,11.12,3.75,11.12,11.4v18.63l.55,6.81h-7.02ZM336.28,190.69c-3.96,1.11-6.19,2.02-7.79,3.34-1.46,1.18-2.02,3.06-2.02,5.21,0,2.71,1.18,4.45,3.55,4.45s4.66-1.32,6.26-3.47v-9.52Z"/><path d="M367.06,209.25v-24.25c0-3.96-1.18-5.56-3.75-5.56-1.95,0-3.82,1.04-6.04,3.61v26.2h-7.37v-36.14h7.16v4.31c2.99-3.34,5.77-5,9.45-5,3.06,0,5.28,1.18,6.39,3.27,1.18,1.88,1.46,4.52,1.46,8.48v25.09h-7.3Z"/><path d="M392.09,209.87c-8.69,0-12.93-5.77-12.93-18.9,0-11.68,4.52-18.56,13.06-18.56,9.38,0,12.65,7.44,12.65,16.68,0,1.04,0,2.22-.07,3.54h-18.56c.28,7.58,1.88,11.12,6.19,11.12,3.34,0,5.14-2.29,6.18-6.05l6.19,1.25c-1.95,7.64-6.19,10.91-12.72,10.91M386.32,187.29h11.47c0-5.35-1.67-8.97-5.56-8.97-3.61,0-5.42,3.2-5.91,8.97"/><path d="M425.92,209.04c-1.81.35-3.61.56-5.7.56-5.97,0-8.2-2.22-8.2-9.11v-21.2h-4.79v-6.19h4.79v-11.74h7.3v11.74h6.6v6.19h-6.6v19.94c0,2.57.97,3.61,3.13,3.61,1.11,0,2.29-.14,3.48-.49v6.67Z"/><path d="M447.38,209.25l-.42-3.82c-2.85,2.92-6.04,4.45-9.8,4.45-5.07,0-8.13-3.47-8.13-9.52,0-4.1,1.46-7.23,4.59-9.52,2.78-2.16,7.37-3.68,13-5.35.42-4.73-.63-7.02-4.31-7.02-3.06,0-4.79,1.81-5.84,5l-5.98-1.46c1.6-5.84,5.14-9.59,12.23-9.59,7.85,0,11.12,3.75,11.12,11.4v18.63l.55,6.81h-7.02ZM446.4,190.69c-3.96,1.11-6.19,2.02-7.79,3.34-1.46,1.18-2.02,3.06-2.02,5.21,0,2.71,1.18,4.45,3.55,4.45s4.66-1.32,6.26-3.47v-9.52Z"/><path d="M460.02,209.25v-36.14h7.16v5.98c2.36-4.31,4.72-6.67,8.55-6.67.35,0,.69.07,1.18.14v7.58c-.55-.07-1.11-.14-1.46-.14-3.55,0-6.11,2.16-8.06,6.19v23.07h-7.37Z"/><path d="M480.44,159h7.64v8.2h-7.64v-8.2ZM480.58,173.11h7.37v36.14h-7.37v-36.14Z"/><path d="M511.41,209.25v-4.31c-3.06,3.34-5.84,4.93-9.52,4.93-3.06,0-5.14-1.11-6.32-3.2-1.18-1.88-1.53-4.52-1.53-8.48v-25.09h7.51v24.25c0,3.96.97,5.56,3.68,5.56,1.88,0,3.75-1.04,5.91-3.61v-26.2h7.44v36.14h-7.16Z"/><path d="M557.54,209.25v-24.53c0-4.03-1.46-5.28-3.41-5.28s-3.75,1.18-5.56,3.41v26.41h-7.37v-24.25c0-3.82-.83-5.56-3.27-5.56-1.95,0-3.96,1.46-5.7,3.68v26.13h-7.37v-36.14h7.16v4.24c2.71-3.13,5.7-4.93,9.11-4.93,3.61,0,5.7,1.81,6.67,4.93,2.92-3.27,5.7-4.93,9.31-4.93,5.77,0,7.72,4.38,7.72,11.12v25.71h-7.3Z"/><polygon points="273.23 280.68 273.23 230.78 299.15 230.78 299.15 238.29 281.5 238.29 281.5 251.29 294.63 251.29 294.63 258.51 281.5 258.51 281.5 280.68 273.23 280.68"/><path d="M300.86,280.68v-36.14h7.16v5.98c2.36-4.31,4.72-6.67,8.55-6.67.35,0,.69.07,1.18.14v7.58c-.55-.07-1.11-.14-1.46-.14-3.55,0-6.11,2.16-8.06,6.19v23.07h-7.37Z"/><path d="M321.27,230.44h7.64v8.2h-7.64v-8.2ZM321.41,244.54h7.37v36.14h-7.37v-36.14Z"/><path d="M351.28,280.47c-1.81.35-3.61.56-5.7.56-5.97,0-8.2-2.22-8.2-9.11v-21.2h-4.79v-6.19h4.79v-11.74h7.3v11.74h6.6v6.19h-6.6v19.94c0,2.57.97,3.61,3.13,3.61,1.11,0,2.29-.14,3.48-.49v6.67Z"/><polygon points="354.14 280.68 354.14 275.12 368.32 250.73 355.46 250.73 355.46 244.54 377.08 244.54 377.08 250.17 362.9 274.5 377.5 274.5 377.5 280.68 354.14 280.68"/><rect x="381.7" y="230.78" width="7.37" height="49.9"/><path d="M411.87,280.68l-.42-3.82c-2.85,2.92-6.04,4.45-9.8,4.45-5.07,0-8.13-3.47-8.13-9.52,0-4.1,1.46-7.23,4.59-9.52,2.78-2.16,7.37-3.68,13-5.35.42-4.73-.63-7.02-4.31-7.02-3.06,0-4.79,1.81-5.84,5l-5.98-1.46c1.6-5.84,5.14-9.59,12.23-9.59,7.85,0,11.12,3.75,11.12,11.4v18.63l.55,6.81h-7.02ZM410.9,262.13c-3.96,1.11-6.19,2.02-7.79,3.34-1.46,1.18-2.02,3.06-2.02,5.21,0,2.71,1.18,4.45,3.55,4.45s4.66-1.32,6.26-3.47v-9.52Z"/><path d="M424.52,280.68v-36.14h7.16v5.98c2.36-4.31,4.73-6.67,8.55-6.67.35,0,.69.07,1.18.14v7.58c-.56-.07-1.11-.14-1.46-.14-3.54,0-6.11,2.16-8.06,6.19v23.07h-7.37Z"/><path d="M98.61,173.77l-60.76,14.96v-30.28c15.72,6.83,39.36,12.5,60.76,15.33Z"/><path d="M197.27,178.5l-63.2,21.18-23.8-24.64c27.5,2.37,56.67.49,80.83-3.83l6.17,7.29Z"/><polygon points="233.52 168.54 233.52 205.31 224.83 207.85 200.83 179.5 233.52 168.54"/><polygon points="129.01 278.32 119.97 281.31 104.67 281.31 104.67 258.83 129.01 278.32"/><polygon points="132.75 281.31 126.57 281.31 130.94 279.86 132.75 281.31"/><polygon points="166.7 226.92 166.7 233.47 161.76 228.36 166.7 226.92"/><polygon points="166.7 236.45 166.7 265.86 131.36 277.54 104.67 256.17 104.67 244.98 159.52 229.01 166.7 236.45"/><polygon points="166.7 268.04 166.7 281.31 136.06 281.31 133.29 279.09 166.7 268.04"/><polygon points="90.01 247.09 37.85 262.27 37.85 234.11 63.2 225.62 90.01 247.09"/><polygon points="93.6 215.43 93.6 246.04 92.44 246.38 65.53 224.83 93.6 215.43"/><polygon points="93.6 249.96 93.6 281.31 37.85 281.31 37.85 264.43 91.98 248.67 93.6 249.96"/><polygon points="61.27 224.08 37.85 231.93 37.85 205.31 61.27 224.08"/><path d="M104.67,209.53v-16.37h-11.07v20.08l-29.99,10.05-25.76-20.63v-11.81l66.57-16.38c.35.04.69.08,1.04.11.56.06,1.12.11,1.68.17l24.78,25.66-27.23,9.12Z"/><polygon points="157.89 227.33 104.67 242.82 104.67 211.72 133.49 202.06 157.89 227.33"/><polygon points="177.77 221.54 177.77 193.16 166.7 193.16 166.7 224.77 160.14 226.67 135.66 201.33 198.71 180.21 222.65 208.48 177.77 221.54"/><polygon points="188.23 258.74 177.77 262.2 177.77 247.92 188.23 258.74"/><polygon points="210.02 281.31 177.77 281.31 177.77 264.38 189.83 260.4 210.02 281.31"/><polygon points="233.52 245.96 233.52 281.31 212.89 281.31 192.01 259.68 233.52 245.96"/><polygon points="233.52 221.31 233.52 243.77 190.41 258.02 177.77 244.94 177.77 223.7 224.12 210.21 233.52 221.31"/><polygon points="233.52 207.47 233.52 218.11 226.3 209.58 233.52 207.47"/><path d="M233.52,158.59v7.77l-34.14,11.44-5.93-7c16.67-3.13,30.79-7.4,40.07-12.21Z"/><path d="M164.63,169.07c-7.85.87-15.78,1.41-23.51,1.6l-4.29-4.18,21.05-5.18,6.75,7.76Z"/><path d="M138.22,170.72c-.51.01-1.01.01-1.52.02-5.1.03-10.3-.11-15.54-.38l13.31-3.28,3.75,3.65Z"/><path d="M132.72,165.37l-18.39,4.53c-3.31-.25-6.63-.57-9.93-.93l-29.49-30.54,22.5-7.4,35.3,34.35Z"/><path d="M101.16,168.58c-25.69-3.15-49.89-9.55-63.76-17.82l35.33-11.62,28.43,29.44Z"/><polygon points="156.36 159.55 135.08 164.79 99.63 130.3 123.96 122.3 156.36 159.55"/><polygon points="176.94 154.49 158.62 159 126.09 121.6 144.08 115.68 176.94 154.49"/><path d="M62.27,96.83l-2.38.62c.32-.65.65-1.3.99-1.96l1.38,1.34Z"/><path d="M59.35,122.31l-1.49,1.43,13.28,13.75-36.01,11.84c-5.92-3.97-9.47-8.33-9.74-12.93-.5-8.4,9.95-16.13,20.77-22.01-.45,1.74-.85,3.66-1.15,5.72-.66,4.52-.67,8.57-.42,11.95h6.74c-.03-2.23.01-5.96.61-10.52,0,0,1.22-9.37,6.82-21.64h0s5.27-1.38,5.27-1.38l31.73,30.88-22.42,7.37-13.97-14.47Z"/><polygon points="122.49 120.6 97.96 128.67 66.35 97.91 96.02 90.17 122.49 120.6"/><polygon points="142.63 113.98 124.61 119.9 98.25 89.59 117.69 84.52 142.63 113.98"/><path d="M83,75.19l-10.69,3.12c2.11-2.51,4.41-4.99,6.95-7.42l3.74,4.3Z"/><path d="M94.51,88.43l-29.89,7.8-2.71-2.64c2.21-4.04,4.89-8.25,8.14-12.45l14.45-4.22,10.01,11.52Z"/><polygon points="116.21 82.77 96.74 87.85 86.68 76.27 105.95 70.65 116.21 82.77"/><path d="M104.48,68.92l-19.3,5.63-4.41-5.07c3.52-3.21,7.45-6.28,11.86-9.12,1-.65,2.03-1.27,3.03-1.86l8.82,10.42Z"/><path d="M142.03,57.96l-35.37,10.32-9.17-10.83c3.76-2.11,6.81-3.52,6.81-3.52,1.55-.72,3.12-1.4,4.71-2.02v-9.25c5.53-2.07,11.95-3.66,18.66-4.42l14.36,19.72Z"/><path d="M174.59,48.45l-30.45,8.88-14.08-19.33c4.39-.36,8.87-.36,13.28.09,11.6,1.21,22.1,5.03,31.25,10.36Z"/><polygon points="153.1 73.15 118.43 82.19 108.12 70.02 143.33 59.74 153.1 73.15"/><path d="M193.02,62.74l-37.77,9.85-9.81-13.46,31.55-9.21c5.99,3.75,11.35,8.14,16.02,12.83Z"/><polygon points="175.08 103.31 144.76 113.28 119.91 83.94 154.41 74.94 175.08 103.31"/><path d="M212.03,91.16l-34.88,11.47-20.58-28.25,38.11-9.94c5.75,6.07,10.35,12.55,13.65,18.74,1.39,2.61,2.62,5.3,3.7,7.97Z"/><polygon points="206.98 147.1 179.18 153.94 146.2 114.98 176.35 105.07 206.98 147.1"/><path d="M186.5,165.78c-6.29,1.21-12.8,2.22-19.38,3l-6.98-8.03,18.29-4.5,8.07,9.53Z"/><path d="M215.17,158.34c-7.86,2.72-16.83,5.08-26.34,6.99l-8.15-9.63,27.62-6.8,6.87,9.43Z"/><path d="M244.24,140.05c-3.42,6.61-13.44,12.64-27.03,17.56l-6.74-9.25,33.77-8.32Z"/><path d="M245.52,135.57c-.04.71-.16,1.43-.35,2.13l-36.02,8.86-30.72-42.17,34.36-11.3c5.12,13.5,6.57,26.3,6.79,28.45.46,4.32.58,7.96.61,10.52h6.73c.23-3.41.21-7.46-.41-11.95-.3-2.13-.69-4.12-1.13-5.93,9.5,5.14,20.59,12.78,20.14,21.39Z"/></svg>