<?xml version="1.0" encoding="UTF-8"?>
<svg id="uuid-eee7b7a6-517b-4e77-937e-d9a7fef2dc5c" xmlns="http://www.w3.org/2000/svg" version="1.1" viewBox="0 0 590.2 318.8">
  <!-- Generator: Adobe Illustrator 29.3.0, SVG Export Plug-In . SVG Version: 2.1.0 Build 146)  -->
  <defs>
    <style>
      .st0 {
        fill: #fff;
      }
    </style>
  </defs>
  <path class="st0" d="M273.2,209.2v-49.9h12.8c11,0,16.6,4.6,16.6,14.9s-5.8,15.2-16.6,15.2h-4.5v19.8h-8.3ZM286.4,182.1c4,0,7.8-1.8,7.8-7.9s-2.8-7.4-7.6-7.4h-5v15.3h4.9Z"/>
  <rect class="st0" x="307.1" y="159.4" width="7.4" height="49.9"/>
  <path class="st0" d="M337.2,209.2l-.4-3.8c-2.9,2.9-6,4.4-9.8,4.4s-8.1-3.5-8.1-9.5,1.5-7.2,4.6-9.5c2.8-2.2,7.4-3.7,13-5.4.4-4.7-.6-7-4.3-7s-4.8,1.8-5.8,5l-6-1.5c1.6-5.8,5.1-9.6,12.2-9.6s11.1,3.8,11.1,11.4v18.6l.5,6.8h-7,0ZM336.3,190.7c-4,1.1-6.2,2-7.8,3.3-1.5,1.2-2,3.1-2,5.2s1.2,4.4,3.5,4.4,4.7-1.3,6.3-3.5v-9.5h0Z"/>
  <path class="st0" d="M367.1,209.2v-24.2c0-4-1.2-5.6-3.8-5.6s-3.8,1-6,3.6v26.2h-7.4v-36.1h7.2v4.3c3-3.3,5.8-5,9.5-5s5.3,1.2,6.4,3.3c1.2,1.9,1.5,4.5,1.5,8.5v25.1h-7.3Z"/>
  <path class="st0" d="M392.1,209.9c-8.7,0-12.9-5.8-12.9-18.9s4.5-18.6,13.1-18.6,12.6,7.4,12.6,16.7,0,2.2,0,3.5h-18.6c.3,7.6,1.9,11.1,6.2,11.1s5.1-2.3,6.2-6.1l6.2,1.2c-2,7.6-6.2,10.9-12.7,10.9M386.3,187.3h11.5c0-5.4-1.7-9-5.6-9s-5.4,3.2-5.9,9"/>
  <path class="st0" d="M425.9,209c-1.8.4-3.6.6-5.7.6-6,0-8.2-2.2-8.2-9.1v-21.2h-4.8v-6.2h4.8v-11.7h7.3v11.7h6.6v6.2h-6.6v19.9c0,2.6,1,3.6,3.1,3.6s2.3-.1,3.5-.5v6.7h0Z"/>
  <path class="st0" d="M447.4,209.2l-.4-3.8c-2.9,2.9-6,4.4-9.8,4.4s-8.1-3.5-8.1-9.5,1.5-7.2,4.6-9.5c2.8-2.2,7.4-3.7,13-5.4.4-4.7-.6-7-4.3-7s-4.8,1.8-5.8,5l-6-1.5c1.6-5.8,5.1-9.6,12.2-9.6s11.1,3.8,11.1,11.4v18.6l.5,6.8h-7,0ZM446.4,190.7c-4,1.1-6.2,2-7.8,3.3-1.5,1.2-2,3.1-2,5.2s1.2,4.4,3.5,4.4,4.7-1.3,6.3-3.5v-9.5h0Z"/>
  <path class="st0" d="M460,209.2v-36.1h7.2v6c2.4-4.3,4.7-6.7,8.5-6.7s.7,0,1.2.1v7.6c-.5,0-1.1-.1-1.5-.1-3.5,0-6.1,2.2-8.1,6.2v23.1h-7.4Z"/>
  <path class="st0" d="M480.4,159h7.6v8.2h-7.6v-8.2ZM480.6,173.1h7.4v36.1h-7.4v-36.1Z"/>
  <path class="st0" d="M511.4,209.2v-4.3c-3.1,3.3-5.8,4.9-9.5,4.9s-5.1-1.1-6.3-3.2c-1.2-1.9-1.5-4.5-1.5-8.5v-25.1h7.5v24.2c0,4,1,5.6,3.7,5.6s3.8-1,5.9-3.6v-26.2h7.4v36.1h-7.2Z"/>
  <path class="st0" d="M557.5,209.2v-24.5c0-4-1.5-5.3-3.4-5.3s-3.8,1.2-5.6,3.4v26.4h-7.4v-24.2c0-3.8-.8-5.6-3.3-5.6s-4,1.5-5.7,3.7v26.1h-7.4v-36.1h7.2v4.2c2.7-3.1,5.7-4.9,9.1-4.9s5.7,1.8,6.7,4.9c2.9-3.3,5.7-4.9,9.3-4.9,5.8,0,7.7,4.4,7.7,11.1v25.7h-7.3,0Z"/>
  <polygon class="st0" points="273.2 280.7 273.2 230.8 299.1 230.8 299.1 238.3 281.5 238.3 281.5 251.3 294.6 251.3 294.6 258.5 281.5 258.5 281.5 280.7 273.2 280.7"/>
  <path class="st0" d="M300.9,280.7v-36.1h7.2v6c2.4-4.3,4.7-6.7,8.5-6.7s.7,0,1.2.1v7.6c-.5,0-1.1-.1-1.5-.1-3.5,0-6.1,2.2-8.1,6.2v23.1h-7.4Z"/>
  <path class="st0" d="M321.3,230.4h7.6v8.2h-7.6v-8.2ZM321.4,244.5h7.4v36.1h-7.4v-36.1Z"/>
  <path class="st0" d="M351.3,280.5c-1.8.4-3.6.6-5.7.6-6,0-8.2-2.2-8.2-9.1v-21.2h-4.8v-6.2h4.8v-11.7h7.3v11.7h6.6v6.2h-6.6v19.9c0,2.6,1,3.6,3.1,3.6s2.3-.1,3.5-.5v6.7h0Z"/>
  <polygon class="st0" points="354.1 280.7 354.1 275.1 368.3 250.7 355.5 250.7 355.5 244.5 377.1 244.5 377.1 250.2 362.9 274.5 377.5 274.5 377.5 280.7 354.1 280.7"/>
  <rect class="st0" x="381.7" y="230.8" width="7.4" height="49.9"/>
  <path class="st0" d="M411.9,280.7l-.4-3.8c-2.9,2.9-6,4.5-9.8,4.5s-8.1-3.5-8.1-9.5,1.5-7.2,4.6-9.5c2.8-2.2,7.4-3.7,13-5.4.4-4.7-.6-7-4.3-7s-4.8,1.8-5.8,5l-6-1.5c1.6-5.8,5.1-9.6,12.2-9.6s11.1,3.8,11.1,11.4v18.6l.5,6.8h-7,0ZM410.9,262.1c-4,1.1-6.2,2-7.8,3.3-1.5,1.2-2,3.1-2,5.2s1.2,4.5,3.5,4.5,4.7-1.3,6.3-3.5v-9.5h0Z"/>
  <path class="st0" d="M424.5,280.7v-36.1h7.2v6c2.4-4.3,4.7-6.7,8.5-6.7s.7,0,1.2.1v7.6c-.6,0-1.1-.1-1.5-.1-3.5,0-6.1,2.2-8.1,6.2v23.1h-7.4Z"/>
  <path class="st0" d="M98.6,173.8l-60.8,15v-30.3c15.7,6.8,39.4,12.5,60.8,15.3h0Z"/>
  <path class="st0" d="M197.3,178.5l-63.2,21.2-23.8-24.6c27.5,2.4,56.7.5,80.8-3.8l6.2,7.3h0Z"/>
  <polygon class="st0" points="233.5 168.5 233.5 205.3 224.8 207.9 200.8 179.5 233.5 168.5"/>
  <polygon class="st0" points="129 278.3 120 281.3 104.7 281.3 104.7 258.8 129 278.3"/>
  <polygon class="st0" points="132.8 281.3 126.6 281.3 130.9 279.9 132.8 281.3"/>
  <polygon class="st0" points="166.7 226.9 166.7 233.5 161.8 228.4 166.7 226.9"/>
  <polygon class="st0" points="166.7 236.4 166.7 265.9 131.4 277.5 104.7 256.2 104.7 245 159.5 229 166.7 236.4"/>
  <polygon class="st0" points="166.7 268 166.7 281.3 136.1 281.3 133.3 279.1 166.7 268"/>
  <polygon class="st0" points="90 247.1 37.8 262.3 37.8 234.1 63.2 225.6 90 247.1"/>
  <polygon class="st0" points="93.6 215.4 93.6 246 92.4 246.4 65.5 224.8 93.6 215.4"/>
  <polygon class="st0" points="93.6 250 93.6 281.3 37.8 281.3 37.8 264.4 92 248.7 93.6 250"/>
  <polygon class="st0" points="61.3 224.1 37.8 231.9 37.8 205.3 61.3 224.1"/>
  <path class="st0" d="M104.7,209.5v-16.4h-11.1v20.1l-30,10.1-25.8-20.6v-11.8l66.6-16.4c.3,0,.7,0,1,.1.6,0,1.1.1,1.7.2l24.8,25.7-27.2,9.1h0Z"/>
  <polygon class="st0" points="157.9 227.3 104.7 242.8 104.7 211.7 133.5 202.1 157.9 227.3"/>
  <polygon class="st0" points="177.8 221.5 177.8 193.2 166.7 193.2 166.7 224.8 160.1 226.7 135.7 201.3 198.7 180.2 222.6 208.5 177.8 221.5"/>
  <polygon class="st0" points="188.2 258.7 177.8 262.2 177.8 247.9 188.2 258.7"/>
  <polygon class="st0" points="210 281.3 177.8 281.3 177.8 264.4 189.8 260.4 210 281.3"/>
  <polygon class="st0" points="233.5 246 233.5 281.3 212.9 281.3 192 259.7 233.5 246"/>
  <polygon class="st0" points="233.5 221.3 233.5 243.8 190.4 258 177.8 244.9 177.8 223.7 224.1 210.2 233.5 221.3"/>
  <polygon class="st0" points="233.5 207.5 233.5 218.1 226.3 209.6 233.5 207.5"/>
  <path class="st0" d="M233.5,158.6v7.8l-34.1,11.4-5.9-7c16.7-3.1,30.8-7.4,40.1-12.2h0Z"/>
  <path class="st0" d="M164.6,169.1c-7.9.9-15.8,1.4-23.5,1.6l-4.3-4.2,21.1-5.2,6.8,7.8h0Z"/>
  <path class="st0" d="M138.2,170.7c-.5,0-1,0-1.5,0-5.1,0-10.3-.1-15.5-.4l13.3-3.3,3.8,3.6h0Z"/>
  <path class="st0" d="M132.7,165.4l-18.4,4.5c-3.3-.2-6.6-.6-9.9-.9l-29.5-30.5,22.5-7.4,35.3,34.4h0Z"/>
  <path class="st0" d="M101.2,168.6c-25.7-3.1-49.9-9.6-63.8-17.8l35.3-11.6,28.4,29.4h0Z"/>
  <polygon class="st0" points="156.4 159.6 135.1 164.8 99.6 130.3 124 122.3 156.4 159.6"/>
  <polygon class="st0" points="176.9 154.5 158.6 159 126.1 121.6 144.1 115.7 176.9 154.5"/>
  <path class="st0" d="M62.3,96.8l-2.4.6c.3-.7.7-1.3,1-2l1.4,1.3h0Z"/>
  <path class="st0" d="M59.3,122.3l-1.5,1.4,13.3,13.7-36,11.8c-5.9-4-9.5-8.3-9.7-12.9-.5-8.4,9.9-16.1,20.8-22-.5,1.7-.8,3.7-1.2,5.7-.7,4.5-.7,8.6-.4,12h6.7c0-2.2,0-6,.6-10.5,0,0,1.2-9.4,6.8-21.6h0l5.3-1.4,31.7,30.9-22.4,7.4-14-14.5h0Z"/>
  <polygon class="st0" points="122.5 120.6 98 128.7 66.3 97.9 96 90.2 122.5 120.6"/>
  <polygon class="st0" points="142.6 114 124.6 119.9 98.2 89.6 117.7 84.5 142.6 114"/>
  <path class="st0" d="M83,75.2l-10.7,3.1c2.1-2.5,4.4-5,6.9-7.4,0,0,3.7,4.3,3.7,4.3Z"/>
  <path class="st0" d="M94.5,88.4l-29.9,7.8-2.7-2.6c2.2-4,4.9-8.2,8.1-12.4l14.4-4.2,10,11.5h0Z"/>
  <polygon class="st0" points="116.2 82.8 96.7 87.8 86.7 76.3 105.9 70.7 116.2 82.8"/>
  <path class="st0" d="M104.5,68.9l-19.3,5.6-4.4-5.1c3.5-3.2,7.4-6.3,11.9-9.1,1-.7,2-1.3,3-1.9l8.8,10.4Z"/>
  <path class="st0" d="M142,58l-35.4,10.3-9.2-10.8c3.8-2.1,6.8-3.5,6.8-3.5,1.6-.7,3.1-1.4,4.7-2v-9.2c5.5-2.1,11.9-3.7,18.7-4.4l14.4,19.7Z"/>
  <path class="st0" d="M174.6,48.5l-30.4,8.9-14.1-19.3c4.4-.4,8.9-.4,13.3,0,11.6,1.2,22.1,5,31.2,10.4Z"/>
  <polygon class="st0" points="153.1 73.2 118.4 82.2 108.1 70 143.3 59.7 153.1 73.2"/>
  <path class="st0" d="M193,62.7l-37.8,9.9-9.8-13.5,31.6-9.2c6,3.8,11.4,8.1,16,12.8h0Z"/>
  <polygon class="st0" points="175.1 103.3 144.8 113.3 119.9 83.9 154.4 74.9 175.1 103.3"/>
  <path class="st0" d="M212,91.2l-34.9,11.5-20.6-28.2,38.1-9.9c5.8,6.1,10.4,12.6,13.6,18.7,1.4,2.6,2.6,5.3,3.7,8h0Z"/>
  <polygon class="st0" points="207 147.1 179.2 153.9 146.2 115 176.4 105.1 207 147.1"/>
  <path class="st0" d="M186.5,165.8c-6.3,1.2-12.8,2.2-19.4,3l-7-8,18.3-4.5,8.1,9.5Z"/>
  <path class="st0" d="M215.2,158.3c-7.9,2.7-16.8,5.1-26.3,7l-8.1-9.6,27.6-6.8,6.9,9.4h0Z"/>
  <path class="st0" d="M244.2,140.1c-3.4,6.6-13.4,12.6-27,17.6l-6.7-9.2,33.8-8.3h0Z"/>
  <path class="st0" d="M245.5,135.6c0,.7-.2,1.4-.4,2.1l-36,8.9-30.7-42.2,34.4-11.3c5.1,13.5,6.6,26.3,6.8,28.4.5,4.3.6,8,.6,10.5h6.7c.2-3.4.2-7.5-.4-11.9-.3-2.1-.7-4.1-1.1-5.9,9.5,5.1,20.6,12.8,20.1,21.4h0Z"/>
</svg>